# xmcd
#
# Track frame offsets: 
#        150
#        15287
#        26077
#        36904
#        56111
#        62011
#        96080
#        114279
#        133274
#        154867
#        176522
#
# Disc length: 2570 seconds
#
# Revision: 0
# Processed by: cddbd v1.5.2PL0 Copyright (c) Steve Scherf et al.
# Submitted via: ExactAudioCopyFreeDBPlugin 1.0
#
DISCID=8c0a080b
DTITLE=Various Artist - Songs 4 Worship - Come And Worship (2002)
DYEAR=2002
DGENRE=Praise and Worship
TTITLE0=Charlie LeBlanc - Come and Worship
TTITLE1=Maranatha! Praise Band - Jesus, Mighty God
TTITLE2=Kent Henry - O Magnify the Lord
TTITLE3=Don Moen - Celebrate the Lord of Love • God Is Good All the Ti
TTITLE3=me
TTITLE4=David Grothe - Arise and Sing
TTITLE5=Ross Parsley - How Awesome Is Your Name • We Lift You High
TTITLE6=Lindell Cooley - Revival Fire Fall
TTITLE7=Kent Henry - You Are My God
TTITLE8=Charlie LeBlanc - Above All
TTITLE9=Darlene Zschech - Let the Peace of God Reign
TTITLE10=Jim Gilbert - Song for the Nations
EXTD=
EXTT0=
EXTT1=
EXTT2=
EXTT3=
EXTT4=
EXTT5=
EXTT6=
EXTT7=
EXTT8=
EXTT9=
EXTT10=
PLAYORDER=
